# xmcd
#
# Track frame offsets:
#	150
#	16825
#	34890
#	46767
#	65491
#	77353
#	93135
#	110251
#	128033
#	143893
#
# Disc length: 2098 seconds
#
# Revision: 1
# Processed by: cddbd v1.5.2PL0 Copyright (c) Steve Scherf et al.
# Submitted via: audiograbber 1.83.01
#
DISCID=7108300a
DTITLE=UCMA - Radio Compilation 2003-11
DYEAR=1900
DGENRE=
TTITLE0=Core Of My Soul  - Dr Fry´s Texas Medicine Band
TTITLE1=I Don´t Want Another Heartache  - Joyce Meré 
TTITLE2=Like I Used To Do  - Deanne
TTITLE3=Troublesome Waters - Clint Miller
TTITLE4=Don´t Change The Rose Of San Antone  - Pap and The Sidemen
TTITLE5=Heart Like S Lightswitch  - Phil Cohen and Patricia Ford
TTITLE6=What The World Means To Me  - Donald Wayne Johnson
TTITLE7=Slik Dresses and Muddy Boots  - Deanne
TTITLE8=Till You Loved Me  - Karen Lynne
TTITLE9=My Old Guitar  - Roger Eydenburgh
EXTD=
EXTT0=
EXTT1=
EXTT2=
EXTT3=
EXTT4=
EXTT5=
EXTT6=
EXTT7=
EXTT8=
EXTT9=
PLAYORDER=
